<svg xmlns="http://www.w3.org/2000/svg" width="22" height="22" fill="none"><path fill="#fff" d="M11 11.816a3.212 3.212 0 0 1-3.208-3.208C7.792 6.838 9.23 5.4 11 5.4c1.77 0 3.208 1.439 3.208 3.208 0 1.77-1.439 3.208-3.208 3.208Zm0-5.041a1.835 1.835 0 0 0-1.833 1.833c0 1.011.822 1.833 1.833 1.833a1.835 1.835 0 0 0 1.833-1.833A1.835 1.835 0 0 0 11 6.775ZM11.23 19.379C4.932 19.379 0 16.863 0 13.649c0-.865.143-1.518.874-2.295a.689.689 0 0 1 1.002.944c-.429.454-.501.736-.501 1.352 0 2.103 3.96 4.354 9.854 4.354a.688.688 0 0 1 0 1.375ZM13.095 19.256a.688.688 0 0 1-.073-1.371c4.548-.49 7.603-2.466 7.603-4.006 0-.781-.147-1.039-.571-1.67a.687.687 0 1 1 1.142-.767c.5.746.804 1.28.804 2.437 0 2.563-3.714 4.822-8.831 5.373a.686.686 0 0 1-.074.004Z"/><path fill="#fff" d="M17.188 14.566H4.813a2.064 2.064 0 0 1-2.063-2.062V5.629c0-1.138.925-2.063 2.063-2.063h2.096l.931-1.863A1.596 1.596 0 0 1 9.275.816h3.45c.612 0 1.162.34 1.435.887l.931 1.863h2.097c1.137 0 2.062.925 2.062 2.063v6.875a2.064 2.064 0 0 1-2.063 2.062ZM4.813 4.941a.688.688 0 0 0-.688.688v6.875c0 .38.308.687.688.687h12.375c.379 0 .687-.308.687-.687V5.629a.688.688 0 0 0-.688-.688h-2.52a.688.688 0 0 1-.615-.38L12.93 2.318a.227.227 0 0 0-.205-.127h-3.45a.23.23 0 0 0-.206.127L7.95 4.561a.688.688 0 0 1-.616.38h-2.52ZM8.938 21.212a.686.686 0 0 1-.43-1.224l1.62-1.297-1.62-1.297a.688.688 0 0 1 .859-1.073l2.291 1.833a.689.689 0 0 1 .001 1.074L9.367 21.06a.686.686 0 0 1-.43.151Z"/></svg>